<svg xmlns="http://www.w3.org/2000/svg" width="512" height="512" fill="none" viewBox="0 0 512 512"><path fill="url(#a)" fill-rule="evenodd" d="M412 0c55.228 0 100 44.772 100 100v312c0 55.228-44.772 100-100 100H100C44.772 512 0 467.228 0 412V100C0 44.772 44.772 0 100 0zM70.707 212c-15.41 0-25.032 16.695-17.305 30.028l107.231 185.029A40 40 0 0 0 195.241 447H441.52c15.359 0 24.986-16.597 17.359-29.931l-23.304-40.74a40 40 0 0 0-34.721-20.138H231.497a10 10 0 0 1-8.599-4.897l-14.602-24.602c-5.934-9.999 1.272-22.655 12.9-22.655h111.406a20 20 0 0 0 17.301-9.968l30.174-52.036c7.731-13.334-1.889-30.033-17.302-30.033zM196.264 65a40 40 0 0 0-34.662 20.035l-25.333 43.983C128.589 142.35 138.213 159 153.6 159h251.136a40 40 0 0 0 34.661-20.036l25.333-43.982C472.41 81.65 462.787 65 447.4 65z" clip-rule="evenodd"/><defs><radialGradient id="a" cx="0" cy="0" r="1" gradientTransform="matrix(256 0 0 256 256 256)" gradientUnits="userSpaceOnUse"><stop offset=".231" stop-color="#125dc7"/><stop offset="1"/></radialGradient></defs></svg>